<?xml version="1.0" encoding="utf-8"?>
<!-- Generator: Adobe Illustrator 25.0.1, SVG Export Plug-In . SVG Version: 6.00 Build 0)  -->
<svg version="1.1" id="Calque_1" xmlns="http://www.w3.org/2000/svg" xmlns:xlink="http://www.w3.org/1999/xlink" x="0px" y="0px"
	 viewBox="0 0 732.2 653.3" style="enable-background:new 0 0 732.2 653.3;" xml:space="preserve">
<g>
	<path d="M464.7,524.8c-10.3-13.2-16.4-20.5-18.3-21.7c-0.8-0.7-2.1-0.9-3.9-0.6c-0.4,0.1-1.5,0.5-3.2,1c-1.8,0.3-4.5,1-8.1,2.1
		l-8.4,2.1c-10.6,3.4-17.8,5.5-21.5,6.3c-1.1,0.2-2.8,0.6-5.2,1.1c-2.9,6.3-6,9.8-9,10.4c-3.5,0.8-7.8-1.2-12.9-5.8
		c-1.5,0.3-2.9,0.6-4.2,0.9c-2,0.4-3.8,0.6-5.7,0.5c-3.5-0.4-5.7-0.5-6.6-0.3c-0.2,0.1-0.8,0.3-1.9,0.7c-2.2,1.2-4.8,2-7.6,2.7
		c-9.6,1.8-15.6,3.6-18,5.2c-0.4,0.3-1.4,1.4-3,3.4l-6.9-1.9c-4.2,0.7-9.1,0.9-14.8,0.8c-9.2,4.9-14.2,7.5-15.1,7.7
		c-1.1,0.2-2.2,0.3-3.3,0.3c-11.6,0.2-17.6,0.3-18,0.4c-0.8,0.2-6.2,3.4-16,9.5c-9.2,0.6-16.5,1.8-22.1,3.7
		c-2.3,0.7-4.4,1.2-6.1,1.6c-2.3,0.5-36.2,20.6-37.1,20.9v0.6c3.8,4.3,20.7,12.8,21.2,13.1l13.5,6.1c16.3-1.9,31.6-3.5,34.7-4.2
		c7.2-1.5,12.5-3.7,16-6.5c6.6-5,10.3-7.6,10.9-7.8c5.2-0.2,8.9-0.6,11-1c7.8-1.7,12.2-2.8,12.9-3.4c10.3-7.2,16.2-10.9,17.7-11.3
		c3-0.6,5.4-0.3,7.1,1.2l4.4,4.5c1.1,1.1,4.6,1.1,10.2-0.1c1.5-0.3,2.7-0.7,3.5-1.1c7.6-3.9,11.8-5.9,12.7-6.1
		c3.5-0.7,6.5-0.7,9.2,0.1c6.5,1.8,11,2.7,13.4,2.8c2.4,0,7.1-0.7,14.1-2.2c4.1-0.9,8.3-3.3,12.4-7.4c6,2.8,10.5,3.9,13.3,3.3
		c0.9-0.2,1.6-0.6,2.1-1.1c2.5-3.3,5-5.4,7.5-6.4l7.4,6.2c4.8-1,8.4-1.7,10.9-2c6.6-0.8,10.5-1.2,11.6-1.5c0.9-0.2,2.6-0.7,5.1-1.4
		c1.5-2.8,2-5.1,1.6-6.8C472,541.3,469.4,535,464.7,524.8z"/>
	<g>
		<g>
			<path d="M282.1,128.1c-1.2,3.4-2.4,9.2-3.7,17.3l-0.7,4.3c-1.3,9.7-12.3,24.5-18.5,46.7L227,175.6l31.5,20.8
				c1.5,0.2,4.4,4.4,8.5,12.5l-1.1,0.5c-5.3-0.4-8.4,2.2-9.3,7.7c-0.9,5.7,1.7,10.1,7.8,13c-0.2,1.5-0.5,3-0.7,4.3
				c-0.7,4.6-3.4,8-8,10.2c-0.7,3-1.3,6.1-1.8,9.2c-0.3,1.8-0.5,3.9-0.6,6.3c-0.2,5.8-1.7,13.1-4.4,21.9c2.3,11.4,3.3,17.5,3.2,18.4
				c-0.1,0.4-2.1,6.1-6,17c-0.4,1.1-0.7,2.1-0.8,3.2c-0.1,0.9,0.4,6.5,1.8,16.8c-2.2,5.3-3.7,10-4.6,14.1l-4.3,5.7
				c1.2,2.2,1.9,3.6,2.1,4c0.7,2.8,0.2,9-1.6,18.7c-0.4,2.9-0.5,5.5-0.2,8.1c0,1.1,0.1,1.8,0,2c-0.1,0.9-1,2.9-2.6,6
				c-0.7,1.7-1.2,3.5-1.5,5.5c-0.2,1.3-0.4,2.7-0.7,4.3c-6.1,3.1-9.4,6.4-10,9.9c-0.5,3.1,1.7,7.1,6.5,12.2
				c-0.4,2.4-0.7,4.2-0.8,5.3c-0.6,3.7-1.2,11.2-1.8,22.3l-1,8.6c-0.4,3.8-0.7,6.5-1,8.3c-0.1,1.8-0.1,2.9-0.2,3.3
				c-0.3,1.8-0.9,2.9-1.9,3.4c-1.8,1.3-10.7,4.4-26.8,9.3c-11.1,0.7-17.9,0.9-20.3,0.5c-1.8-0.3-3.7-1.6-5.8-3.9
				c0.2-2.7,0.4-4.4,0.5-5.3c0.2-1.1,1.1-4.9,2.8-11.4c0.6-2.4,1.3-6,2-10.8l8.5-4.7c0-2.7-1.1-5.8-3.3-9.3
				c-0.3-0.7-0.4-1.5-0.3-2.4c0.4-2.9,3.1-6.6,7.8-11.3c-2.3-5.3-3.2-10.1-2.5-14.2c1.1-7,2.1-11.7,3-13.9c0.9-2.2,3.4-6.1,7.4-11.5
				c1.7-2.2,2.8-5.1,3.4-8.6c0.1-0.9-0.3-5.6-1.2-14c-0.1-0.9,0-2.1,0.2-3.7c0.9-5.7,2.1-8.9,3.5-9.6l5.8-2.5c2-1,3.2-3.1,3.7-6.2
				c0.2-1.5-1.2-8.4-4.2-20.6c-0.3-0.9,0.2-5.4,1.4-13.3c0.3-2.2,1.3-5.7,3-10.7c0.1-0.7-1-5-3.4-13c-1.4-4.3-1.5-10-0.3-17.3
				c0.8-4.8,5.7-24.7,14.7-59.5c0.7-2.8,1.3-6.3,2-10.5c1.1-7,1.4-15.6,1-25.8l-10.4-2.6l-1.6,1.4l-85.3,54
				c-41.4,13,32.6-30.5,33-33c0.4-2.9,38-31,39.1-32.2c1-1,3.1-3.1,13.6-11c4.4-1.1,8.6-2.9,12.3-5.5c10.2-6.5,20.5-12.9,30.7-19.2
				c5.5-3.6,10.5-5.1,14.9-4.4C274.9,123,278.1,124.8,282.1,128.1z"/>
		</g>
		<g>
			<path d="M423.1,118.9c-1.2,3.4-2.4,9.2-3.7,17.3l-0.7,4.3c-1.3,9.7-12.3,24.5-18.5,46.7l-32.2-20.9l31.5,20.8
				c1.5,0.2,4.4,4.4,8.5,12.5l-1.1,0.5c-5.3-0.4-8.4,2.2-9.3,7.7c-0.9,5.7,1.7,10.1,7.8,13c-0.2,1.5-0.5,3-0.7,4.3
				c-0.7,4.6-3.4,8-8,10.2c-0.7,3-1.3,6.1-1.8,9.2c-0.3,1.8-0.5,3.9-0.6,6.3c-0.2,5.8-1.7,13.1-4.4,21.9c2.3,11.4,3.3,17.5,3.2,18.4
				c-0.1,0.4-2.1,6.1-6,17c-0.4,1.1-0.7,2.1-0.8,3.2c-0.1,0.9,0.4,6.5,1.8,16.8c-2.2,5.3-3.7,10-4.6,14.1l-4.3,5.7
				c1.2,2.2,1.9,3.6,2.1,4c0.7,2.8,0.2,9-1.6,18.7c-0.4,2.9-0.5,5.5-0.2,8.1c0,1.1,0.1,1.8,0,2c-0.1,0.9-1,2.9-2.6,6
				c-0.7,1.7-1.2,3.5-1.5,5.5c-0.2,1.3-0.4,2.7-0.7,4.3c-6.1,3.1-9.4,6.4-10,9.9c-0.5,3.1,1.7,7.1,6.5,12.2
				c-0.4,2.4-0.7,4.2-0.8,5.3c-0.6,3.7-1.2,11.2-1.8,22.3l-1,8.6c-0.4,3.8-0.7,6.5-1,8.3c-0.1,1.8-0.1,2.9-0.2,3.3
				c-0.3,1.8-0.9,2.9-1.9,3.4c-1.8,1.3-10.7,4.4-26.8,9.3c-11.1,0.7-17.9,0.9-20.3,0.5c-1.8-0.3-3.7-1.6-5.8-3.9
				c0.2-2.7,0.4-4.4,0.5-5.3c0.2-1.1,1.1-4.9,2.8-11.4c0.6-2.4,1.3-6,2-10.8l8.5-4.7c0-2.7-1.1-5.8-3.3-9.3
				c-0.3-0.7-0.4-1.5-0.3-2.4c0.4-2.9,3.1-6.6,7.8-11.3c-2.3-5.3-3.2-10.1-2.5-14.2c1.1-7,2.1-11.7,3-13.9c0.9-2.2,3.4-6.1,7.4-11.5
				c1.7-2.2,2.8-5.1,3.4-8.6c0.1-0.9-0.3-5.6-1.2-14c-0.1-0.9,0-2.1,0.2-3.7c0.9-5.7,2.1-8.9,3.5-9.6l5.8-2.5c2-1,3.2-3.1,3.7-6.2
				c0.2-1.5-1.2-8.4-4.2-20.6c-0.3-0.9,0.2-5.4,1.4-13.3c0.3-2.2,1.3-5.7,3-10.7c0.1-0.7-1-5-3.4-13c-1.4-4.3-1.5-10-0.3-17.3
				c0.8-4.8,5.7-24.7,14.7-59.5c0.7-2.8,1.3-6.3,2-10.5c1.1-7,1.4-15.6,1-25.8l-10.4-2.6l-1.6,1.4l-85.3,54
				c-41.4,13,32.6-30.5,33-33c0.4-2.9,38-31,39.1-32.2c1-1,3.1-3.1,13.6-11c4.4-1.1,8.6-2.9,12.3-5.5c10.2-6.5,20.5-12.9,30.7-19.2
				c5.5-3.6,10.5-5.1,14.9-4.4C416,113.8,419.2,115.6,423.1,118.9z"/>
		</g>
		<g>
			<path d="M561.2,112.8c-1.2,3.4-2.4,9.2-3.7,17.3l-0.7,4.3c-1.3,9.7-12.3,24.5-18.5,46.7l-32.2-20.9l31.5,20.8
				c1.5,0.2,4.4,4.4,8.5,12.5l-1.1,0.5c-5.3-0.4-8.4,2.2-9.3,7.7c-0.9,5.7,1.7,10.1,7.8,13c-0.2,1.5-0.5,3-0.7,4.3
				c-0.7,4.6-3.4,8-8,10.2c-0.7,3-1.3,6.1-1.8,9.2c-0.3,1.8-0.5,3.9-0.6,6.3c-0.2,5.8-1.7,13.1-4.4,21.9c2.3,11.4,3.3,17.5,3.2,18.4
				c-0.1,0.4-2.1,6.1-6,17c-0.4,1.1-0.7,2.1-0.8,3.2c-0.1,0.9,0.4,6.5,1.8,16.8c-2.2,5.3-3.7,10-4.6,14.1l-4.3,5.7
				c1.2,2.2,1.9,3.6,2.1,4c0.7,2.8,0.2,9-1.6,18.7c-0.4,2.9-0.5,5.5-0.2,8.1c0,1.1,0.1,1.8,0,2c-0.1,0.9-1,2.9-2.6,6
				c-0.7,1.7-1.2,3.5-1.5,5.5c-0.2,1.3-0.4,2.7-0.7,4.3c-6.1,3.1-9.4,6.4-10,9.9c-0.5,3.1,1.7,7.1,6.5,12.2
				c-0.4,2.4-0.7,4.2-0.8,5.3c-0.6,3.7-1.2,11.2-1.8,22.3l-1,8.6c-0.4,3.8-0.7,6.5-1,8.3c-0.1,1.8-0.1,2.9-0.2,3.3
				c-0.3,1.8-0.9,2.9-1.9,3.4c-1.8,1.3-10.7,4.4-26.8,9.3c-11.1,0.7-17.9,0.9-20.3,0.5c-1.8-0.3-3.7-1.6-5.8-3.9
				c0.2-2.7,0.4-4.4,0.5-5.3c0.2-1.1,1.1-4.9,2.8-11.4c0.6-2.4,1.3-6,2-10.8l8.5-4.7c0-2.7-1.1-5.8-3.3-9.3
				c-0.3-0.7-0.4-1.5-0.3-2.4c0.4-2.9,3.1-6.6,7.8-11.3c-2.3-5.3-3.2-10.1-2.5-14.2c1.1-7,2.1-11.7,3-13.9c0.9-2.2,3.4-6.1,7.4-11.5
				c1.7-2.2,2.8-5.1,3.4-8.6c0.1-0.9-0.3-5.6-1.2-14c-0.1-0.9,0-2.1,0.2-3.7c0.9-5.7,2.1-8.9,3.5-9.6l5.8-2.5c2-1,3.2-3.1,3.7-6.2
				c0.2-1.5-1.2-8.4-4.2-20.6c-0.3-0.9,0.2-5.4,1.4-13.3c0.3-2.2,1.3-5.7,3-10.7c0.1-0.7-1-5-3.4-13c-1.4-4.3-1.5-10-0.3-17.3
				c0.8-4.8,5.7-24.7,14.7-59.5c0.7-2.8,1.3-6.3,2-10.5c1.1-7,1.4-15.6,1-25.8l-10.4-2.6l-1.6,1.4l-85.3,54
				c-41.4,13,32.6-30.5,33-33c0.4-2.9,38-31,39.1-32.2c1-1,3.1-3.1,13.6-11c4.4-1.1,8.6-2.9,12.3-5.5c10.2-6.5,20.5-12.9,30.7-19.2
				c5.5-3.6,10.5-5.1,14.9-4.4C554,107.6,557.2,109.5,561.2,112.8z"/>
		</g>
	</g>
	<g>
		<g>
			<path d="M105.7,10.4c4.6,0.1,15.6,3.1,24.7,5.2l4.5-4.3c0.1-1.8,4.8-5.6,13.9-11.4l0.7,1.2c0.1,6.4,3.4,9.8,10,10.2
				c5.5,0.4,9.8-1.8,12.7-6.6c1.4-2.3,3.9-3.8,6.5-3.6l0.5,0c4.7,0.3,8.6,2.4,11.5,6.3c1.1,1.4,2.7,2.3,4.5,2.5
				c2.6,0.3,5.3,0.6,8,0.8c2.1,0.1,4.6,0.2,7.6,0.1c6.5-0.3,14.8,0.6,24.7,2.6c1.1,0.2,2.3,0.2,3.4-0.1c12.2-3.5,18.8-5.3,19.8-5.2
				c0.5,0,7.4,1.8,20.7,5.4c1.3,0.4,2.6,0.6,3.9,0.7c1,0.1,7-1.1,18-3.4c1.1-0.2,2.4-0.2,3.5,0.1c5.2,1.6,9.9,2.6,14.1,3.2
				c0.9,0.1,1.8,0.4,2.6,0.9l2.3,1.4c2.2,1.4,5.1,1.4,7.3,0c0,0,0.1-0.1,0.1-0.1c0.5-0.3,1-0.5,1.6-0.7c3.6-0.9,10.8-0.8,21.5,0.2
				c3.4,0.2,6.6,0.1,9.6-0.5c1.3-0.2,2.1-0.3,2.4-0.2c1.1,0.1,3.5,0.9,7.4,2.5c2.1,0.7,4.3,1.1,6.7,1.3l1.7,0.1
				c2,0.1,3.9,1.2,5.1,2.8c3.7,5.2,7.4,8,11.1,8.2c3.2,0.2,7.1-2,11.7-6.7c1.4-1.4,3.4-2.2,5.4-2l3,0.2c4.5,0.3,13.3,0.3,26.4-0.2
				c0.1,0,0.3,0,0.4,0l10.1,0.3c4.3,0,7.5,0.1,9.6,0.3c0.3,0,0.5,0,0.8,0c1.9-0.1,3.1-0.1,3.6-0.1c2.1,0.1,260,0.6,260.8,1.7
				c1.7,1.9,1.8,20.5,1.8,37.7c0,19.5,0,30.4-29.2,28c-12.7-1.1-183.5-19.9-183.7-17c-0.1,1.2-29.5,8.9-30.5,10.4
				c-1.3,2-3.6,3.3-6,3.2c-1.4,0-2.3,0-3-0.1c-1.3-0.1-5.9-0.8-13.8-2.1c-2.3-0.4-5.5-0.7-9.7-1c-2.1-0.2-4-1.3-5.2-3l-1.8-2.6
				c-2-2.9-5.8-3.9-8.9-2.3c-1.5,0.8-3,1.7-4.7,2.9c-0.8,0.5-1.8,0.7-2.8,0.6c-2.8-0.2-6.4-2-10.9-5.4c-2-1.5-4.7-1.9-7-0.9
				c-4.6,2-8.9,2.9-12.9,2.6c-8.4-0.6-14-1.3-16.8-2.1c-2.7-0.8-7.5-3.4-14.4-7.6c-2.8-1.8-6.3-2.8-10.5-3.1
				c-1.1-0.1-6.6,0.9-16.5,2.8c-1.1,0.2-2.5,0.2-4.4,0.1c-6.9-0.5-10.8-1.5-11.7-3.2l-3.5-6.6c-1.4-2.2-4-3.5-7.7-3.7
				c-1.8-0.1-9.8,2.2-24,7.1c-1.1,0.5-6.4,0.4-15.9-0.3c-2.4-0.2-6.2-0.9-11.3-2.1c-1.3-0.3-2.6-0.3-3.8,0.1
				c-2.4,0.8-6.7,2.4-13,4.8c-4.9,2-11.7,2.8-20.4,2.2c-5.8-0.4-29.8-4.2-72-11.3c-3.4-0.5-28.3-1.5-38-0.4
				C115.3,51.7,5.1,348.3,3.7,341c-12.8-68.2,10.1-115.2,25.5-158.7C84.9,25.4,81.7,9.9,105.7,10.4z"/>
		</g>
		<path d="M683.4,40.6l6.1,416.9c0.1,1,13.8,101.2,15.3,119.5c2.1,25.5-2.5,60.2-6.1,64.6c-5.9,7.4-14,11.3-14,11.3l0,0l0,0.5
			l-322.8-4.6l13.1-27.5l258.2-5.5c6.6-0.1,16.4-6.4,20.3-23.4c3.2-14.1-13.2-13.2-12.7-31c0.4-16.2,1.5-51.1-7.3-74.7
			c-10.6-28.3,4.8-47.6-8.2-95.2l11.3-321.8L683.4,40.6z"/>
	</g>
</g>
</svg>
