<?xml version="1.0" encoding="utf-8"?>
<!-- Generator: Adobe Illustrator 25.1.0, SVG Export Plug-In . SVG Version: 6.00 Build 0)  -->
<svg version="1.1" id="freepik_stories-website-creator" xmlns:svgjs="http://svgjs.com/svgjs"
	 xmlns="http://www.w3.org/2000/svg" xmlns:xlink="http://www.w3.org/1999/xlink" x="0px" y="0px" viewBox="0 0 500 500"
	 style="enable-background:new 0 0 500 500;" xml:space="preserve">
<style type="text/css">
	.st0{fill:#EBEBEB;}
	.st1{fill:#E2E2E2;}
	.st2{fill:#CECECE;}
	.st3{fill:none;stroke:#CECECE;stroke-miterlimit:10;}
	.st4{opacity:0.8;fill:#CECECE;enable-background:new    ;}
	.st5{fill:#F5F5F5;}
	.st6{display:none;}
	.st7{display:inline;fill:#263238;}
	.st8{display:inline;}
	.st9{opacity:0.2;fill:#FFFFFF;enable-background:new    ;}
	.st10{opacity:0.4;fill:#FFFFFF;enable-background:new    ;}
	.st11{fill:#23282D;}
	.st12{opacity:0.6;fill:#FFFFFF;enable-background:new    ;}
	.st13{fill:#FFFFFF;}
	.st14{opacity:0.1;enable-background:new    ;}
	.st15{opacity:0.7;fill:#FFFFFF;enable-background:new    ;}
	.st16{opacity:0.2;enable-background:new    ;}
	.st17{fill:none;stroke:#FFFFFF;stroke-miterlimit:10;}
	.st18{fill:none;stroke:#FFFFFF;stroke-miterlimit:10;stroke-dasharray:5.2837,5.2837;}
	.st19{fill:none;stroke:#FFFFFF;stroke-miterlimit:10;stroke-dasharray:4.5294,4.5294;}
	.st20{fill:#23282D;stroke:#FFFFFF;stroke-miterlimit:10;}
	.st21{fill:none;stroke:#FFFFFF;stroke-width:1.5;stroke-linecap:round;stroke-linejoin:round;}
	.st22{opacity:0.5;fill:#FFFFFF;enable-background:new    ;}
	.st23{fill:none;stroke:#23282D;stroke-miterlimit:10;}
	.st24{fill:#FFFFFF;stroke:#23282D;stroke-miterlimit:10;}
	.st25{opacity:0.4;enable-background:new    ;}
	.st26{opacity:0.9;fill:#FFFFFF;enable-background:new    ;}
	.st27{fill:#263238;}
	.st28{opacity:0.1;}
	.st29{opacity:0.2;}
	.st30{opacity:0.3;enable-background:new    ;}
	.st31{display:inline;fill:#407BFF;}
	.st32{display:inline;fill:#EBB376;}
	.st33{display:inline;fill:none;stroke:#263238;stroke-width:0.5;stroke-linecap:round;stroke-linejoin:round;}
	.st34{opacity:0.3;fill:#FFFFFF;enable-background:new    ;}
	.st35{fill:#B97964;}
	.st36{fill:#A24E3F;}
	.st37{fill:none;stroke:#263238;stroke-width:0.5;stroke-linecap:round;stroke-linejoin:round;}
	.st38{fill:none;stroke:#FFFFFF;stroke-width:2;stroke-linecap:round;stroke-linejoin:round;}
</style>
<g id="freepik--background-complete--inject-2">
	<rect id="elpj8a69nwvq8" y="382.4" class="st0" width="500" height="0.2"/>
	<rect id="elki9xj186ex" x="416.8" y="398.5" class="st0" width="33.1" height="0.2"/>
	<rect id="elm4pipsq6kk" x="322.5" y="401.2" class="st0" width="8.7" height="0.2"/>
	<rect id="el8qwgc8r3fb6" x="396.6" y="389.2" class="st0" width="19.2" height="0.2"/>
	<rect id="el4sunrh3p7pj" x="52.5" y="390.9" class="st0" width="43.2" height="0.2"/>
	<rect id="elg84h4961j38" x="104.6" y="390.9" class="st0" width="6.3" height="0.2"/>
	<rect id="eln4ajdl575x" x="131.5" y="395.1" class="st0" width="93.7" height="0.2"/>
	<path id="ele6ojm9rdyxf" class="st0" d="M237,337.8H43.9c-3.1,0-5.7-2.6-5.7-5.7V60.7c0-3.1,2.6-5.7,5.7-5.7H237
		c3.2,0,5.7,2.6,5.7,5.7l0,0v271.4C242.7,335.2,240.2,337.8,237,337.8z M43.9,55.2c-3,0-5.5,2.4-5.5,5.5v271.4c0,3,2.4,5.5,5.5,5.5
		H237c3,0,5.5-2.4,5.5-5.5V60.7c0-3-2.4-5.5-5.5-5.5H43.9z"/>
	<path id="el94wtohecz7n" class="st0" d="M453.3,337.8H260.2c-3.2,0-5.7-2.6-5.7-5.7V60.7c0-3.1,2.6-5.7,5.7-5.7h193.1
		c3.1,0,5.7,2.5,5.7,5.7v271.4C459,335.2,456.5,337.8,453.3,337.8z M260.2,55.2c-3,0-5.5,2.4-5.5,5.5v271.4c0,3,2.4,5.5,5.5,5.5
		h193.1c3,0,5.5-2.4,5.5-5.5V60.7c0-3-2.4-5.5-5.5-5.5H260.2z"/>
	<path id="elh4iq23h5cf7" class="st1" d="M353.9,98.1c0-2.7-2.2-4.9-4.9-4.9c0,0,0,0-0.1,0c-0.5,0-1,0.1-1.4,0.2
		c0.1-0.5,0.1-1,0.1-1.5c0-5.7-4.6-10.3-10.3-10.3c-0.6,0-1.3,0.1-1.9,0.2c-2.6-4.3-8.2-5.6-12.4-3c-2.7,1.6-4.3,4.5-4.3,7.6h-0.1
		c-4.6,0.2-8.2,4-8.1,8.6c0.2,4.4,3.7,7.9,8.1,8.1h30.6C351.8,103,353.9,100.8,353.9,98.1z"/>
	<polygon id="elj4cvqomr2fn" class="st2" points="336,105.4 336,95.9 328.2,95.9 328.2,105.4 321.9,105.4 332.1,114.1 342.3,105.4 	
		"/>
	<path id="elryhvo39c4n" class="st1" d="M200.7,112.6c0-5.7-4.6-10.4-10.4-10.4c-1,0-2,0.1-3,0.4c0.2-1.1,0.2-2.1,0.2-3.2
		c0-12.2-9.8-22-22-22c-1.4,0-2.7,0.1-4.1,0.4c-5.5-9.1-17.3-12-26.4-6.4c-5.7,3.4-9.1,9.5-9.2,16.2h-0.3
		c-9.8-0.2-17.9,7.5-18.1,17.3s7.5,17.9,17.3,18.1c0.3,0,0.6,0,0.8,0h65C196.2,122.8,200.7,118.2,200.7,112.6z"/>
	<polygon id="el05zdsmrln03q" class="st2" points="146,113.4 146,133.6 162.5,133.6 162.5,113.4 176,113.4 154.2,95 132.6,113.4 	
		"/>
	<polyline id="elw1zb18t3my" class="st3" points="209,163.1 209,135.9 292.4,135.9 292.4,162.9 	"/>
	<line id="elwwps51n5lc" class="st3" x1="251.9" y1="110.2" x2="251.9" y2="163.1"/>
	<path id="elwzlrqe81sj" class="st1" d="M237.7,99.9h28.4c0.7,0,1.2,0.5,1.2,1.2V118c0,0.7-0.5,1.2-1.2,1.2h-28.4
		c-0.7,0-1.2-0.5-1.2-1.2v-16.9C236.5,100.4,237.1,99.9,237.7,99.9z"/>
	<path id="elzzffyqi68m9" class="st2" d="M238,102.1h27.8c0.2,0,0.4,0.2,0.4,0.4v15.4c0,0.2-0.2,0.4-0.4,0.4H238
		c-0.2,0-0.4-0.2-0.4-0.4v-15.4C237.6,102.3,237.8,102.1,238,102.1z"/>
	<path id="ell62pnerz7jp" class="st1" d="M194.8,160.7h28.4c0.7,0,1.2,0.5,1.2,1.2v16.9c0,0.7-0.5,1.2-1.2,1.2h-28.4
		c-0.7,0-1.2-0.5-1.2-1.2v-16.9C193.6,161.2,194.1,160.7,194.8,160.7z"/>
	<path id="elbdp1wq6wm8o" class="st2" d="M195.1,162.9h27.8c0.2,0,0.4,0.2,0.4,0.4v15.4c0,0.2-0.2,0.4-0.4,0.4h-27.8
		c-0.2,0-0.4-0.2-0.4-0.4v-15.4C194.7,163.1,194.8,162.9,195.1,162.9z"/>
	<path id="el3dsce6c52l6" class="st1" d="M237.7,160.7h28.4c0.7,0,1.2,0.5,1.2,1.2v16.9c0,0.7-0.5,1.2-1.2,1.2h-28.4
		c-0.7,0-1.2-0.5-1.2-1.2v-16.9C236.5,161.2,237.1,160.7,237.7,160.7z"/>
	<path id="el2p6sxolffpj" class="st2" d="M238,162.9h27.8c0.2,0,0.4,0.2,0.4,0.4v15.4c0,0.2-0.2,0.4-0.4,0.4H238
		c-0.2,0-0.4-0.2-0.4-0.4v-15.4C237.6,163.1,237.8,162.9,238,162.9z"/>
	<path id="elavjis7dm5e6" class="st1" d="M278.2,160.7h28.4c0.7,0,1.2,0.5,1.2,1.2v16.9c0,0.7-0.5,1.2-1.2,1.2h-28.4
		c-0.7,0-1.2-0.5-1.2-1.2v-16.9C277,161.2,277.6,160.7,278.2,160.7z"/>
	<path id="eljd4d652osw" class="st2" d="M278.5,162.9h27.8c0.2,0,0.4,0.2,0.4,0.4v15.4c0,0.2-0.2,0.4-0.4,0.4h-27.8
		c-0.2,0-0.4-0.2-0.4-0.4v-15.4C278.1,163.1,278.3,162.9,278.5,162.9z"/>
	<g id="el4fvj2e53269">
		<path class="st2" d="M246.5,129.7h10.9c0.4,0,0.8,0.4,0.8,0.8v10.9c0,0.4-0.4,0.8-0.8,0.8h-10.9c-0.4,0-0.8-0.4-0.8-0.8v-10.9
			C245.6,130,246,129.7,246.5,129.7z"/>
	</g>
	<g id="eltu0lrt235n">
		<path class="st4" d="M69.1,122.7h20c0.5,0,0.9,0.4,0.9,0.9v11.3c0,0.5-0.4,0.9-0.9,0.9h-20c-0.5,0-0.9-0.4-0.9-0.9v-11.3
			C68.2,123,68.6,122.7,69.1,122.7z"/>
	</g>
	<path id="elpfwp3wr70zi" class="st2" d="M58,150.7h15.9c0.5,0,0.9,0.4,0.9,0.9v8.2c0,0.5-0.4,0.9-0.9,0.9H58
		c-0.5,0-0.9-0.4-0.9-0.9v-8.2C57.1,151.1,57.5,150.7,58,150.7z"/>
	<path id="elebax8jvy4ag" class="st2" d="M84.7,150.7h15.8c0.5,0,0.9,0.4,0.9,0.9v8.2c0,0.5-0.4,0.9-0.9,0.9H84.7
		c-0.5,0-0.9-0.4-0.9-0.9v-8.2C83.8,151.1,84.2,150.7,84.7,150.7z"/>
	<path id="elgwm8d5xo9g" class="st2" d="M76.6,171.7h7.5c0.5,0,0.9,0.4,0.9,0.9v6.8c0,0.5-0.4,0.9-0.9,0.9h-7.5
		c-0.5,0-0.9-0.4-0.9-0.9v-6.8C75.7,172.1,76.1,171.7,76.6,171.7z"/>
	<path id="elolh0ns2vzys" class="st2" d="M88.3,171.7h7.5c0.5,0,0.9,0.4,0.9,0.9v6.8c0,0.5-0.4,0.9-0.9,0.9h-7.5
		c-0.5,0-0.9-0.4-0.9-0.9v-6.8C87.5,172.1,87.8,171.7,88.3,171.7z"/>
	<path id="elmbmmxyyi54g" class="st2" d="M100.1,171.7h7.5c0.5,0,0.9,0.4,0.9,0.9v6.8c0,0.5-0.4,0.9-0.9,0.9h-7.5
		c-0.5,0-0.9-0.4-0.9-0.9v-6.8C99.2,172.1,99.6,171.7,100.1,171.7z"/>
	<path id="el19jlm8soejy" class="st2" d="M49.5,171.7H57c0.5,0,0.9,0.4,0.9,0.9v6.8c0,0.5-0.4,0.9-0.9,0.9h-7.5
		c-0.5,0-0.9-0.4-0.9-0.9v-6.8C48.6,172.1,49,171.7,49.5,171.7z"/>
	<path id="elgw73063xc47" class="st2" d="M62.2,171.7h7.5c0.5,0,0.9,0.4,0.9,0.9v6.8c0,0.5-0.4,0.9-0.9,0.9h-7.5
		c-0.5,0-0.9-0.4-0.9-0.9v-6.8C61.3,172.1,61.7,171.7,62.2,171.7z"/>
	<polygon id="elctfhx4uouy" class="st2" points="91.6,150.7 92.6,150.7 92.6,143.7 79.6,143.7 79.6,135.7 78.6,135.7 78.6,143.7 
		65.6,143.7 65.6,150.7 66.6,150.7 66.6,144.7 91.6,144.7 	"/>
	<polygon id="el3bo560lb4iw" class="st2" points="65.6,166.7 52.6,166.7 52.6,171.7 53.6,171.7 53.6,167.7 65.6,167.7 65.6,171.7 
		66.6,171.7 66.6,160.7 65.6,160.7 	"/>
	<polygon id="elfis07inyz9i" class="st2" points="92.6,167.7 92.6,160.7 91.6,160.7 91.6,167.7 79.6,167.7 79.6,171.7 80.6,171.7 
		80.6,168.7 91.6,168.7 91.6,171.7 92.6,171.7 92.6,168.7 103.6,168.7 103.6,171.7 104.6,171.7 104.6,167.7 	"/>
	<path id="ela228vvowa4m" class="st1" d="M381,125.8v7.2l3.7,0.4c0.5,2.4,1.4,4.6,2.8,6.6l-2.4,2.9l5.1,5.1l2.9-2.4
		c2,1.3,4.3,2.3,6.6,2.8l0.3,3.7h7.2l0.4-3.7c2.4-0.5,4.6-1.4,6.6-2.8l2.9,2.4l5.1-5.1l-2.4-2.8c1.3-2,2.3-4.3,2.8-6.6l3.7-0.4v-7.2
		l-3.7-0.3c-0.5-2.4-1.4-4.6-2.8-6.6l2.4-2.9l-5.1-5.1l-2.9,2.4c-2-1.3-4.3-2.3-6.6-2.8l-0.4-3.7H400l-0.4,3.7
		c-2.4,0.5-4.6,1.4-6.6,2.8l-2.9-2.4l-5.1,5.1l2.4,2.9c-1.3,2-2.3,4.3-2.8,6.6L381,125.8z M403.6,119.7c5.4,0,9.7,4.4,9.7,9.7
		c0,5.3-4.4,9.7-9.7,9.7s-9.7-4.4-9.7-9.7l0,0C393.9,124,398.2,119.7,403.6,119.7L403.6,119.7z"/>
	<path id="ell36r9u0qz98" class="st1" d="M385.6,178.2c1.9-0.4,3.6-1.1,5.2-2.2l2.2,1.9l4-4l-1.9-2.2c1-1.6,1.8-3.3,2.2-5.2l2.9-0.3
		v-5.6l-2.9-0.3c-0.4-1.9-1.1-3.6-2.2-5.2l1.9-2.2l-4-4l-2.2,1.9c-1.6-1-3.3-1.8-5.2-2.2l-0.3-2.9h-5.6l-0.3,2.9
		c-1.9,0.4-3.6,1.1-5.2,2.2l-2.3-1.8l-4,4l1.9,2.2c-1,1.6-1.8,3.3-2.2,5.2l-2.9,0.3v5.6l2.9,0.3c0.4,1.9,1.1,3.6,2.2,5.2l-1.9,2.2
		l4,4l2.2-1.9c1.6,1,3.3,1.8,5.2,2.2l0.3,2.9h5.6L385.6,178.2z M374.9,163.4c0-4.2,3.4-7.6,7.6-7.6s7.6,3.4,7.6,7.6
		s-3.4,7.6-7.6,7.6l0,0C378.3,171,374.9,167.6,374.9,163.4z"/>
	<path id="el71qzhkvwmaq" class="st1" d="M373.1,147.7l1.9,1.6l3.4-3.3l-1.6-1.9c0.9-1.3,1.5-2.8,1.8-4.4l2.4-0.2v-4.7l-2.4-0.2
		c-0.3-1.6-0.9-3-1.8-4.4l1.6-1.9l-3.3-3.3l-1.9,1.6c-1.3-0.9-2.8-1.5-4.4-1.8l-0.2-2.4h-4.7l-0.2,2.4c-1.6,0.3-3,0.9-4.4,1.8
		l-1.9-1.6l-3.3,3.3l1.6,1.9c-0.9,1.3-1.5,2.8-1.8,4.4l-2.4,0.2v4.7l2.4,0.2c0.3,1.6,0.9,3,1.8,4.4l-1.6,1.9l3.3,3.3l1.9-1.6
		c1.3,0.9,2.8,1.5,4.4,1.8l0.2,2.4h4.7l0.2-2.4C370.3,149.3,371.7,148.6,373.1,147.7z M359.7,137.1c0-3.5,2.9-6.4,6.4-6.4
		s6.4,2.9,6.4,6.4s-2.9,6.4-6.4,6.4l0,0C362.6,143.5,359.7,140.6,359.7,137.1z"/>
	<rect id="elhpa3p96x53" x="372.2" y="324" class="st1" width="67.1" height="43.7"/>
	<rect id="ellsa3yzrvrwg" x="374.7" y="332.2" class="st2" width="62.2" height="33.3"/>
	<rect id="el3g9t932vluc" x="379.8" y="337.2" class="st1" width="46" height="1.4"/>
	<rect id="el4vrmnee2h95" x="379.8" y="341.6" class="st1" width="22.1" height="1.4"/>
	<rect id="elamcbrpdzlw" x="379.8" y="346" class="st1" width="27.8" height="1.4"/>
	<rect id="eln5afejd58qa" x="379.8" y="350.4" class="st1" width="9.8" height="1.4"/>
	<rect id="elzp22tiscbu9" x="379.8" y="354.8" class="st1" width="6.4" height="1.4"/>
	<g id="elwvwuhv9ysu">
		<rect x="47.9" y="323.9" class="st0" width="47.8" height="29.5"/>
	</g>
	<path id="eljsh9yyyflt9" class="st1" d="M66.1,346.1c-0.2,0-0.4-0.1-0.6-0.2l-8.7-6.4c-0.3-0.2-0.4-0.5-0.4-0.8s0.1-0.6,0.4-0.8
		l8.7-6.5c0.4-0.3,1.1-0.2,1.4,0.2s0.2,1.1-0.2,1.4l0,0l-7.6,5.6l7.6,5.6c0.4,0.3,0.5,0.9,0.2,1.4C66.8,345.9,66.5,346.1,66.1,346.1
		L66.1,346.1z"/>
	<path id="els5gbj1ikrx8" class="st1" d="M77.5,346c-0.3,0-0.6-0.1-0.8-0.4c-0.3-0.4-0.2-1.1,0.2-1.4l0,0l7.6-5.6l-7.6-5.6
		c-0.4-0.3-0.5-1-0.2-1.4s1-0.5,1.4-0.2l0,0l8.7,6.4c0.3,0.2,0.4,0.5,0.4,0.8s-0.1,0.6-0.4,0.8l-8.7,6.5
		C77.9,345.9,77.7,346,77.5,346z"/>
	<path id="el13sufiux0jb" class="st1" d="M69.5,346c-0.1,0-0.2,0-0.3-0.1c-0.5-0.2-0.8-0.8-0.6-1.3l4.5-12.8
		c0.2-0.5,0.8-0.8,1.3-0.6s0.8,0.8,0.6,1.3l-4.5,12.8C70.3,345.8,69.9,346.1,69.5,346z"/>
</g>
<g id="freepik--Shadow--inject-2">
	<ellipse id="freepik--path--inject-2" class="st5" cx="250" cy="416.2" rx="193.9" ry="11.3"/>
</g>
<g id="freepik--Ladder--inject-2" class="st6">
	<polygon id="elaxt6zhrjxks" class="st7" points="334.4,416.2 341.7,416.2 351.7,361 344.4,361 	"/>
	<g id="eltgnbf4acl3b" class="st8">
		<polygon class="st9" points="334.4,416.2 341.7,416.2 351.7,361 344.4,361 		"/>
	</g>
	<g id="elkzqnozxfpt" class="st8">
		<polygon class="st9" points="334.4,416.2 339.7,416.2 349.7,361 344.4,361 		"/>
	</g>
	<path id="elopd36wp9et" class="st7" d="M313.7,377.4h29.4c0.9,0,1.6-0.7,1.6-1.6l0,0l0,0c0-0.9-0.7-1.6-1.6-1.6l0,0h-29.4
		c-0.9,0-1.6,0.7-1.6,1.6l0,0l0,0C312.1,376.7,312.8,377.4,313.7,377.4L313.7,377.4z"/>
	<path id="elak8np3u5g4l" class="st7" d="M310.4,395.9h29.4c0.9,0,1.6-0.7,1.6-1.6l0,0c0-0.9-0.7-1.6-1.6-1.6h-29.4
		c-0.9,0-1.6,0.7-1.6,1.6l0,0C308.8,395.2,309.5,395.9,310.4,395.9z"/>
	<polygon id="elemm7hb2zjit" class="st7" points="304.4,416.2 311.7,416.2 321.7,361 314.4,361 	"/>
	<g id="elhbldzsfduic" class="st8">
		<polygon class="st9" points="304.4,416.2 311.7,416.2 321.7,361 314.4,361 		"/>
	</g>
	<g id="eloh8j9z5dnwe" class="st8">
		<polygon class="st9" points="304.4,416.2 309.7,416.2 319.7,361 314.4,361 		"/>
	</g>
	<polygon id="elkrmh2u3uc4" class="st7" points="372.7,416.2 365.4,416.2 355.4,361 362.7,361 	"/>
	<g id="els98lio0fc8s" class="st8">
		<polygon class="st10" points="372.7,416.2 365.4,416.2 355.4,361 362.7,361 		"/>
	</g>
	<g id="el5hbuc833cry" class="st8">
		<polygon class="st9" points="370.7,416.2 365.4,416.2 355.4,361 360.7,361 		"/>
	</g>
	<path id="elw75jrz1hg8q" class="st7" d="M359.8,377.4h-29.4c-0.9,0-1.6-0.7-1.6-1.6l0,0c0-0.9,0.7-1.6,1.6-1.6h29.4
		c0.9,0,1.6,0.7,1.6,1.6l0,0C361.4,376.7,360.7,377.4,359.8,377.4z"/>
	<path id="elxnsajcazpd" class="st7" d="M363.1,395.9h-29.4c-0.9,0-1.6-0.7-1.6-1.6l0,0l0,0c0-0.9,0.7-1.6,1.6-1.6h29.4
		c0.9,0,1.6,0.7,1.6,1.6l0,0C364.7,395.2,364,395.9,363.1,395.9L363.1,395.9z"/>
	<g id="elngc9qd8r1i" class="st8">
		<path class="st9" d="M359.8,377.4h-29.4c-0.9,0-1.6-0.7-1.6-1.6l0,0c0-0.9,0.7-1.6,1.6-1.6h29.4c0.9,0,1.6,0.7,1.6,1.6l0,0
			C361.4,376.7,360.7,377.4,359.8,377.4z"/>
	</g>
	<g id="eltko2z8akzke" class="st8">
		<path class="st9" d="M363.1,395.9h-29.4c-0.9,0-1.6-0.7-1.6-1.6l0,0l0,0c0-0.9,0.7-1.6,1.6-1.6h29.4c0.9,0,1.6,0.7,1.6,1.6l0,0
			C364.7,395.2,364,395.9,363.1,395.9L363.1,395.9z"/>
	</g>
	<polygon id="el1lgl3b2095b" class="st7" points="342.7,416.2 335.4,416.2 325.4,361 332.7,361 	"/>
	<g id="elwn3iwud2hr" class="st8">
		<polygon class="st10" points="342.7,416.2 335.4,416.2 325.4,361 332.7,361 		"/>
	</g>
	<g id="elt5z2t861ua" class="st8">
		<polygon class="st9" points="340.7,416.2 335.4,416.2 325.4,361 330.7,361 		"/>
	</g>
	<path id="ele4ed6z4aqih" class="st7" d="M312.5,358.4h53.1c0.7,0,1.2,0.5,1.2,1.2v2.9c0,0.7-0.5,1.2-1.2,1.2h-53.1
		c-0.7,0-1.2-0.5-1.2-1.2v-2.9C311.3,358.9,311.8,358.4,312.5,358.4z"/>
	<g id="eln2kgh686dz9" class="st8">
		<path class="st9" d="M312.5,358.4h20.2c0.7,0,1.2,0.5,1.2,1.2v2.9c0,0.7-0.5,1.2-1.2,1.2h-20.2c-0.7,0-1.2-0.5-1.2-1.2v-2.9
			C311.3,358.9,311.8,358.4,312.5,358.4z"/>
	</g>
</g>
<g id="freepik--Screen--inject-2">
	<rect id="elvgfgq96ke7k" x="127.2" y="371.9" class="st11" width="67.2" height="43.7"/>
	<g id="elszqyti3c2r">
		<rect x="127.2" y="371.9" class="st12" width="67.2" height="43.7"/>
	</g>
	<rect id="elu8d38x3utba" x="129.7" y="380" class="st11" width="62.2" height="33.3"/>
	<rect id="el73allrh786a" x="134.7" y="385" class="st13" width="46" height="1.4"/>
	<rect id="elyqvdg6pk5wl" x="134.7" y="389.4" class="st13" width="22.1" height="1.4"/>
	<rect id="el93i98bcoz5l" x="134.7" y="393.8" class="st13" width="27.8" height="1.4"/>
	<rect id="elnvq842voyjl" x="134.7" y="398.2" class="st13" width="9.8" height="1.4"/>
	<rect id="elkdjgxkeyqk" x="134.7" y="402.6" class="st13" width="6.4" height="1.4"/>
</g>
<g id="freepik--Device--inject-2">
	<polygon id="el4p5jocjq88n" class="st11" points="277.3,416.2 222.7,416.2 231.9,343.6 268.1,343.6 	"/>
	<g id="elry30pq0nrkq">
		<polygon class="st12" points="277.3,416.2 222.7,416.2 229,366.5 231.9,343.6 268.1,343.6 272.4,377.4 		"/>
	</g>
	<g id="el7t6ad3fjfew">
		<polygon class="st14" points="272.4,377.4 229,366.5 231.9,343.6 268.1,343.6 		"/>
	</g>
	<path id="elunyl4hax7e9" class="st11" d="M378.9,164.4H121.1c-3.6,0-6.6,3-6.6,6.6l0,0v174.5c0,3.6,3,6.6,6.6,6.6h257.7
		c3.6,0,6.6-3,6.6-6.6V171C385.5,167.4,382.5,164.4,378.9,164.4L378.9,164.4z"/>
	<g id="elzcejiyqighb">
		<path class="st15" d="M378.9,164.4H121.1c-3.6,0-6.6,3-6.6,6.6l0,0v174.5c0,3.6,3,6.6,6.6,6.6h257.7c3.6,0,6.6-3,6.6-6.6V171
			C385.5,167.4,382.5,164.4,378.9,164.4L378.9,164.4z"/>
	</g>
	<rect id="el0s3h3jb8ok7r" x="123.2" y="170.8" class="st11" width="253.6" height="168.2"/>
	<path id="el78uyv7yqhd6" class="st11" d="M204.1,410.8h91.8c0.6,0,1,0.5,1,1v3.3c0,0.6-0.5,1-1,1h-91.8c-0.6,0-1-0.5-1-1v-3.3
		C203.1,411.2,203.5,410.8,204.1,410.8z"/>
	<g id="elh8ihvrp4ide">
		<path class="st15" d="M204.1,410.8h91.8c0.6,0,1,0.5,1,1v3.3c0,0.6-0.5,1-1,1h-91.8c-0.6,0-1-0.5-1-1v-3.3
			C203.1,411.2,203.5,410.8,204.1,410.8z"/>
	</g>
	<g id="elcafbxhlgzfs">
		<rect x="123.2" y="171" class="st16" width="253.6" height="25.1"/>
	</g>
	<g id="elc5aj3kvfgmf">
		<rect x="123.2" y="196.4" class="st10" width="108.7" height="142.7"/>
	</g>
	<polyline id="el9x4bo2eabg" class="st17" points="337.8,232.8 337.8,235.3 335.3,235.3 	"/>
	<line id="eloxntv44693" class="st18" x1="330" y1="235.3" x2="248.1" y2="235.3"/>
	<polyline id="eli0k8wyqxsc7" class="st17" points="245.4,235.3 242.9,235.3 242.9,232.8 	"/>
	<line id="el4xna32ua0d9" class="st19" x1="242.9" y1="228.2" x2="242.9" y2="185.2"/>
	<polyline id="elq81mra1rtba" class="st17" points="242.9,183 242.9,180.5 245.4,180.5 	"/>
	<line id="elenuwrvju5bl" class="st18" x1="250.7" y1="180.5" x2="332.6" y2="180.5"/>
	<polyline id="el7i480oi1l3" class="st17" points="335.3,180.5 337.8,180.5 337.8,183 	"/>
	<line id="elsb9u7spidgl" class="st19" x1="337.8" y1="187.5" x2="337.8" y2="230.5"/>
	<rect id="elp82wfg5pyb" x="336.2" y="178.9" class="st20" width="3.2" height="3.2"/>
	<rect id="elpkh58yb07nk" x="336.2" y="233.7" class="st20" width="3.2" height="3.2"/>
	<rect id="el2q9gnfb5v3c" x="241.4" y="178.9" class="st20" width="3.2" height="3.2"/>
	<rect id="elw5u1w3imvc" x="241.4" y="233.7" class="st20" width="3.2" height="3.2"/>
	<rect id="el7c2fcivtgoc" x="288.8" y="178.9" class="st20" width="3.2" height="3.2"/>
	<rect id="elhe3c403jjwq" x="288.8" y="233.7" class="st20" width="3.2" height="3.2"/>
	<rect id="el2d1ndzaeqdi" x="336.2" y="206.3" class="st20" width="3.2" height="3.2"/>
	<rect id="elfc75ki86a1s" x="241.4" y="206.3" class="st20" width="3.2" height="3.2"/>
	<g id="elzfjqt620yya">
		<path class="st15" d="M305.9,198.9h23.2c1,0,1.9,0.8,1.9,1.9v6.2c0,1-0.8,1.9-1.9,1.9h-23.2c-1,0-1.9-0.8-1.9-1.9v-6.2
			C304,199.7,304.9,198.9,305.9,198.9z"/>
	</g>
	<g id="ele6mdz9s5xjl">
		<path class="st15" d="M265.9,198.9h23.2c1,0,1.9,0.8,1.9,1.9v6.2c0,1-0.8,1.9-1.9,1.9h-23.2c-1,0-1.9-0.8-1.9-1.9v-6.2
			C264,199.7,264.9,198.9,265.9,198.9z"/>
	</g>
	<g id="elsc82k3oich">
		<path class="st15" d="M214.4,320.5h23.2c1,0,1.9,0.8,1.9,1.9v6.2c0,1-0.8,1.9-1.9,1.9h-23.2c-1,0-1.9-0.8-1.9-1.9v-6.2
			C212.6,321.3,213.4,320.5,214.4,320.5z"/>
	</g>
	<line id="el5r8t8n3dskg" class="st21" x1="360" y1="179.9" x2="368.5" y2="179.9"/>
	<line id="el0zf1yao29ubb" class="st21" x1="360" y1="183.9" x2="368.5" y2="183.9"/>
	<line id="el4qu4q9gf7b9" class="st21" x1="360" y1="187.9" x2="368.5" y2="187.9"/>
	<g id="eleholeqj9hik">
		<rect x="140.4" y="218.5" class="st22" width="85.1" height="85"/>
	</g>
	<line id="el477ybcojodn" class="st23" x1="176" y1="225.4" x2="176" y2="298.8"/>
	<path id="elue846rapc7k" class="st23" d="M212.7,298.8L212.7,298.8c-20.3,0-36.7-16.4-36.7-36.7l0,0l0,0
		c0-20.3,16.4-36.7,36.7-36.7l0,0"/>
	<rect id="el2jk80964qos" x="211.1" y="223.9" class="st24" width="3.2" height="3.2"/>
	<rect id="elalymlns9grk" x="211.1" y="297.2" class="st24" width="3.2" height="3.2"/>
	<rect id="elch6rcy7qtap" x="174.4" y="260.5" class="st24" width="3.2" height="3.2"/>
	<path id="el7vj3ofxk8nb" class="st24" d="M176.8,225.4c0,0.5-0.4,0.8-0.8,0.8s-0.8-0.4-0.8-0.8c0-0.5,0.4-0.8,0.8-0.8
		C176.5,224.6,176.8,225,176.8,225.4z"/>
	<path id="elfqfll0f5ci" class="st24" d="M176.8,298.8c0,0.5-0.4,0.8-0.8,0.8c-0.5,0-0.8-0.4-0.8-0.8s0.4-0.8,0.8-0.8
		C176.5,298,176.8,298.4,176.8,298.8L176.8,298.8z"/>
	<g id="elsywtz2qi6je">
		<path class="st15" d="M316.9,321.7h-25.8c-4.1,0-7.4-3.3-7.4-7.4l0,0l0,0c0-4.1,3.3-7.4,7.4-7.4l0,0h25.8c4.1,0,7.4,3.3,7.4,7.4
			l0,0l0,0C324.4,318.3,321,321.7,316.9,321.7L316.9,321.7z"/>
	</g>
	<g id="elsl5wfw4fkf">
		<path class="st15" d="M339.5,258.2H260c-0.9,0-1.6-0.7-1.6-1.6l0,0l0,0c0-0.9,0.7-1.6,1.6-1.6h79.5c0.9,0,1.6,0.7,1.6,1.6l0,0l0,0
			C341.2,257.5,340.4,258.2,339.5,258.2z"/>
	</g>
	<g id="elupkjm9gyqvc">
		<path class="st15" d="M339.5,270.1H260c-0.9,0-1.6-0.7-1.6-1.6l0,0l0,0c0-0.9,0.7-1.6,1.6-1.6l0,0h79.5c0.9,0,1.6,0.7,1.6,1.6l0,0
			l0,0C341.2,269.4,340.4,270.1,339.5,270.1L339.5,270.1z"/>
	</g>
	<g id="el1ojkx40253m">
		<path class="st15" d="M339.5,282H290c-0.9,0-1.6-0.7-1.6-1.6l0,0c0-0.9,0.7-1.6,1.6-1.6l0,0h49.5c0.9,0,1.6,0.7,1.6,1.6l0,0l0,0
			C341.2,281.3,340.4,282,339.5,282z"/>
	</g>
	<g id="elxwohj0p17id">
		<rect x="131.2" y="177.9" class="st25" width="5.6" height="5.6"/>
	</g>
	<g id="elfms159x67g6">
		<path class="st25" d="M143.6,177.9h2.7c0.8,0,1.4,0.6,1.4,1.4v2.7c0,0.8-0.6,1.4-1.4,1.4h-2.7c-0.8,0-1.4-0.6-1.4-1.4v-2.7
			C142.1,178.6,142.8,177.9,143.6,177.9z"/>
	</g>
	<g id="els1r9gkzwiok">
		<path class="st25" d="M155.7,177.9h0.5c1.4,0,2.6,1.2,2.6,2.6v0.5c0,1.4-1.2,2.6-2.6,2.6h-0.5c-1.4,0-2.6-1.2-2.6-2.6v-0.5
			C153.1,179.1,154.2,177.9,155.7,177.9z"/>
	</g>
	<g id="el0t7zum4q1lk">
		<path class="st26" d="M148.4,316.5v-2.2l-1.1-0.1c-0.2-0.7-0.4-1.4-0.8-2l0.7-0.9l-1.6-1.5l-0.9,0.7c-0.6-0.4-1.3-0.7-2-0.8
			l-0.1-1.1h-2.2l-0.1,1.1c-0.7,0.2-1.4,0.4-2,0.8l-0.9-0.7l-1.6,1.5l0.7,0.9c-0.4,0.6-0.7,1.3-0.8,2l-1.1,0.1v2.2l1.1,0.1
			c0.2,0.7,0.4,1.4,0.8,2l-0.7,0.9l1.6,1.5l0.9-0.7c0.6,0.4,1.3,0.7,2,0.8l0.1,1.1h2.2l0.1-1.1c0.7-0.2,1.4-0.4,2-0.8l0.9,0.7
			l1.6-1.5l-0.7-0.9c0.4-0.6,0.7-1.3,0.8-2L148.4,316.5z M141.6,318.4c-1.7,0-3-1.3-3-3s1.3-3,3-3s3,1.3,3,3
			S143.2,318.4,141.6,318.4z"/>
	</g>
	<g id="elqiemkxidy8">
		<path class="st12" d="M157.3,322.7V321l-0.9-0.1c-0.1-0.6-0.3-1.1-0.7-1.6l0.6-0.7l-1.2-1.2l-0.7,0.6c-0.5-0.3-1-0.5-1.6-0.7
			l-0.1-0.9H151l-0.1,0.9c-0.6,0.1-1.1,0.3-1.6,0.7l-0.7-0.6l-1.2,1.2l0.6,0.7c-0.3,0.5-0.5,1-0.7,1.6l-0.9,0.1v1.7l0.9,0.1
			c0.1,0.6,0.3,1.1,0.7,1.6l-0.6,0.7l1.2,1.2l0.7-0.6c0.5,0.3,1,0.5,1.6,0.7l0.1,0.9h1.7l0.1-0.9c0.6-0.1,1.1-0.3,1.6-0.7l0.7,0.6
			l1.2-1.2l-0.6-0.7c0.3-0.5,0.5-1,0.7-1.6L157.3,322.7z M151.9,324.1c-1.3,0-2.3-1-2.3-2.3s1-2.3,2.3-2.3s2.3,1,2.3,2.3l0,0
			C154.3,323.1,153.2,324.1,151.9,324.1L151.9,324.1L151.9,324.1z"/>
	</g>
	<g id="elhuliuy09y9k">
		<path class="st10" d="M148.4,327.5v-1.4l-0.7-0.1c-0.1-0.5-0.3-0.9-0.6-1.3l0.5-0.6l-1-1l-0.6,0.5c-0.4-0.3-0.9-0.5-1.3-0.5
			l-0.1-0.7h-1.5l-0.1,0.7c-0.5,0.1-0.9,0.3-1.3,0.5l-0.6-0.5l-1,1l0.5,0.6c-0.3,0.4-0.5,0.9-0.6,1.3l-0.8,0.1v1.4l0.8,0.1
			c0.1,0.5,0.3,0.9,0.6,1.3l-0.5,0.6l1,1l0.6-0.5c0.4,0.3,0.9,0.5,1.3,0.6l0.1,0.7h1.4l0.1-0.7c0.5-0.1,0.9-0.3,1.3-0.6l0.6,0.5l1-1
			l-0.5-0.6c0.3-0.4,0.5-0.9,0.6-1.3L148.4,327.5z M143.9,328.8c-1.1,0-1.9-0.9-1.9-2s0.9-1.9,2-1.9s1.9,0.9,1.9,1.9
			C145.9,327.9,145,328.8,143.9,328.8C144,328.8,143.9,328.8,143.9,328.8z"/>
	</g>
	<polygon id="elqi2v3qeeeb" class="st11" points="337.2,179.9 341.4,191.2 348.5,184.1 	"/>
	<g id="el8kpp1yj9c79">
		<rect x="343.9" y="185.2" class="st11" width="2.2" height="5"/>
	</g>
	<g id="elk7m3zi4ec0j">
		<polygon class="st10" points="348.5,184.1 337.2,179.9 341.4,191.2 344.2,188.5 345.9,190.2 347.5,188.6 345.8,186.9 		"/>
	</g>
	<path id="el3y2seyoybmf" class="st27" d="M163.5,220.4l10.7,4l-5.6-5.6c-0.4,0.2-1,0.2-1.3-0.2c-0.4-0.4-0.4-1.1,0-1.6
		s1.1-0.4,1.6,0c0.3,0.3,0.4,0.9,0.2,1.3l5.6,5.6l-4-10.7l-3.5,0.8l-0.1-1.3l-0.7-0.7l-3.9,3.9l0.7,0.7l1.3,0.1L163.5,220.4z"/>
	<g id="elfuq17wokzz">
		<path class="st9" d="M163.5,220.4l10.7,4l-5.6-5.6c-0.4,0.2-1,0.2-1.3-0.2c-0.4-0.4-0.4-1.1,0-1.6s1.1-0.4,1.6,0
			c0.3,0.3,0.4,0.9,0.2,1.3l5.6,5.6l-4-10.7l-3.5,0.8l-0.1-1.3l-0.7-0.7l-3.9,3.9l0.7,0.7l1.3,0.1L163.5,220.4z"/>
	</g>
	<g id="el7u5nb2zgvft">
		<g class="st28">
			<polygon id="elbilu25sfnh" class="st13" points="160.3,170.8 122.7,311.3 122.7,170.8 			"/>
			<polygon id="el0j21xojo4syt" class="st13" points="202.7,170.8 157.7,339.1 126.7,339.1 171.7,170.8 			"/>
			<polygon id="el43fb5o95rdh" class="st13" points="247.8,170.8 202.8,339.1 188.8,339.1 233.8,170.8 			"/>
			<polygon id="elv4edh000our" class="st13" points="289.3,170.8 244.3,339.1 239.3,339.1 284.3,170.8 			"/>
		</g>
	</g>
</g>
<g id="freepik--character-2--inject-2" class="st6">
	<path id="elcj3g3kn8jbn" class="st7" d="M441.9,208c3.5,4.1,21.6,38.9,18.1,47s-32.4-1.2-32.4-1.2l1.7-11.5c0,0,11.2,0.4,12.3-0.7
		s-15.2-17.3-15.2-17.3L441.9,208z"/>
	<g id="el4shuvej1ig" class="st8">
		<g class="st29">
			<path id="el44ribzalvkm" class="st13" d="M460,255c-0.4,0.9-1.2,1.7-2.1,2.1l0,0l-0.6,0.3h-0.1c-0.2,0.1-0.4,0.1-0.5,0.2
				c-0.8,0.3-1.7,0.4-2.5,0.5l-0.7,0.1c-0.4,0-0.7,0-1.1,0.1h-1c-9.7,0-23.8-4.6-23.8-4.6l1.7-11.5c0,0,11.2,0.4,12.3-0.7
				c0.3-0.3-0.5-1.4-1.8-3l0,0c-3.2-3.9-9.5-10.4-12.2-13.1l-1.2-1.2l15.5-16.3C445.5,212.1,463.5,246.8,460,255z"/>
		</g>
	</g>
	<g id="elpsqvvqwcxrd" class="st8">
		<path class="st16" d="M457.9,257.1L457.9,257.1l-0.6,0.3h-0.1c-0.2,0.1-0.4,0.1-0.5,0.2c-0.8,0.3-1.7,0.4-2.5,0.5l-0.7,0.1
			c-0.4,0-0.7,0-1.1,0.1h-1c-9.7,0-23.8-4.6-23.8-4.6l1.7-11.5c0,0,12.7,1.1,13.7,0l0,0c0.2-0.4-1.2-1.8-3.3-3.6l0,0
			c-3.2-3.9-9.5-10.4-12.2-13.1l7.3-7.8l5.6-0.6C440.5,217,452.8,237,457.9,257.1z"/>
	</g>
	<path id="elxab7gl9lo2" class="st7" d="M405.4,206.8c-2,1.4-3,3.5-2.2,4.6l52.8,72.9c0.8,1.1,3.1,0.8,5.1-0.7s3-3.5,2.2-4.6
		l-52.8-72.9C409.7,205.1,407.4,205.4,405.4,206.8z"/>
	<g id="elhzr8h08jgmc" class="st8">
		<path class="st15" d="M410.5,206.1l52.8,72.9c0.8,1.1-0.2,3.1-2.2,4.6s-4.3,1.7-5,0.7l-52.8-72.9c-0.4-0.8-0.3-1.7,0.2-2.4
			c0.3-0.5,0.6-0.9,1-1.3c0.3-0.3,0.6-0.6,1-0.9C407.4,205.4,409.7,205.1,410.5,206.1z"/>
	</g>
	<g id="el760io8lutk9" class="st8">
		<path class="st30" d="M463.3,279c0.8,1.1-0.2,3.1-2.2,4.6s-4.3,1.7-5,0.7c-0.4-0.6,0.6-1.5,1.3-2.8l-54-72.5
			c0.3-0.5,0.6-0.9,1-1.3l52.9,72.9c0.3-0.3,0.6-0.6,1-0.9C460.3,278.2,462.5,277.9,463.3,279z"/>
	</g>
	<path id="eluyaji8vh8y9" class="st31" d="M398.9,204.8c-1.7,1.8-2.3,4-1.3,4.9l65.7,61.5c1,0.9,3.1,0.2,4.8-1.6s2.3-4,1.3-4.9
		l-65.7-61.5C402.7,202.3,400.6,203,398.9,204.8z"/>
	<g id="el1hd5zg3ce59" class="st8">
		<path class="st15" d="M403.7,203.2l65.7,61.5c1,0.9,0.4,3.1-1.3,4.9s-3.9,2.5-4.8,1.6l-65.7-61.5c-0.5-0.7-0.7-1.6-0.3-2.4
			c0.2-0.5,0.4-1,0.7-1.5c0.2-0.4,0.5-0.7,0.8-1C400.6,203,402.7,202.3,403.7,203.2z"/>
	</g>
	<g id="elb44cdyih5hm" class="st8">
		<path class="st30" d="M469.4,264.7c1,0.9,0.4,3.1-1.3,4.9s-3.9,2.5-4.8,1.6c-0.5-0.5,0.4-1.6,0.7-3l-66.7-60.9
			c0.2-0.5,0.4-1,0.7-1.5l65.7,61.5c0.2-0.4,0.5-0.7,0.8-1C466.3,264.5,468.4,263.8,469.4,264.7z"/>
	</g>
	<path id="elejrjmo3bkrs" class="st32" d="M414.7,401.1l-5,0.1c-5.1-23.9-8.7-53.5-10.9-75.8c-0.4-3.5-0.7-6.8-1-9.9
		c-0.1-1.5-0.3-2.9-0.4-4.2c-0.6-6.7-1-12-1.3-15.3c-0.2-2.4-0.3-3.7-0.3-3.7H414l-0.2,4.6l-0.6,15.2l-0.1,1.7l-0.4,10l-0.6,17.1
		C418.4,365,414.7,401.1,414.7,401.1z"/>
	<path id="ell0c33s9uifs" class="st32" d="M455.3,399.8l-4.9,0.9c-9.9-24.7-19.1-56.3-25.2-78.3c-0.9-3.4-1.8-6.6-2.6-9.5
		c0-0.1-0.1-0.3-0.1-0.4c-1.5-5.8-2.7-10.4-3.4-13.3l-0.9-3.5l17.8-3.1l1,7.5l1.5,11l0.3,2.2l1,7.5l2.7,20.1
		C452.8,363.6,455.3,399.8,455.3,399.8z"/>
	<g id="ela29422m8z1p" class="st8">
		<path class="st16" d="M438.5,311.1l-15.9,1.8c0-0.1-0.1-0.3-0.1-0.4c-1.5-5.8-2.7-10.4-3.4-13.3l18,0.9L438.5,311.1z"/>
	</g>
	<g id="elb165h7wqukc" class="st8">
		<path class="st16" d="M413.8,296.8l-0.6,15.2l-0.1,1.7l-15.4,1.7c-0.1-1.5-0.3-2.9-0.4-4.2c-0.6-6.7-1-12-1.3-15.3L413.8,296.8z"
			/>
	</g>
	<path id="elsjlumuhmw2" class="st7" d="M399.9,417.7c0.9-0.8,2-1.3,3.1-1.7l0,0c0,0,3.4-3.4,5.1-13.6l4.5-1.2
		c1.6-0.4,3.2,0.3,4.1,1.6c0.1,0.2,0.2,0.4,0.3,0.6c0.2,1.1,0.4,2.2,0.5,3.3c0.2,3.7,0.3,7.5,0.1,11.2h-0.8l-0.3-7
		c-0.1-2.4-2,0.4-2.5,3s-1.6,5.3-6.9,5.4C400.9,419.5,398.3,419.2,399.9,417.7z"/>
	<path id="elscxfdp4jn1" class="st7" d="M416.7,403c0.3-2.4,0.4-6.5,0.4-6.5l-9.9,1.1c0,0,1.2,4.7,0.2,8.2
		C412.4,404.5,416.7,403,416.7,403z"/>
	<path id="el9qce5vg43xa" class="st7" d="M440.2,417.7c0.9-0.8,2-1.3,3.1-1.7l0,0c0,0,3.4-3.4,5-13.6l4.5-1.2
		c1.6-0.4,3.2,0.3,4.1,1.6c0.1,0.2,0.2,0.4,0.3,0.6c0.2,1.1,0.4,2.2,0.5,3.3c0.2,3.7,0.3,7.5,0.1,11.2H457l-0.3-7
		c-0.1-2.4-2,0.4-2.5,3s-1.6,5.3-6.9,5.4C441.2,419.5,438.7,419.2,440.2,417.7z"/>
	<path id="elbfq1ln3dung" class="st7" d="M457.1,403c0.3-2.4,0.4-6.5,0.4-6.5l-9.9,1.1c0,0,1.2,4.7,0.2,8.2
		C452.8,404.5,457.1,403,457.1,403z"/>
	<path id="elndbnbq915ub" class="st31" d="M440.3,306.2l-18.9,2.4l-0.7,0.1l-3.9-14.2l-1,15.2l-20.2-1.1c-9-52.9,6.4-65.4,6.4-65.4
		l27.4,5.5c12.4,21.1,9.5,45.7,9.5,45.7L440.3,306.2z"/>
	<path id="ely0itxb8pto" class="st33" d="M414.3,177.4c0,2.1-0.9,3.8-2,3.8s-2.1-1.7-2.1-3.8s0.9-3.8,2.1-3.8
		S414.3,175.4,414.3,177.4z"/>
	<path id="els5fda2mc6jc" class="st32" d="M427.8,190c-0.1,0.1-0.2,0.1-0.2,0.2c-1.1,0.9-2.4,1.5-3.8,1.9c-4,0.9-6.8,0.4-8.6-1.4
		l0,0c-2.5-2.8-3.2-7.6-2.8-13.5c0.1-2.3,0.5-4.7,1.3-6.9v-0.1l0.1-0.2c1-2.5,3.2-4.4,5.9-4.9c1.1-0.3,2.3-0.4,3.5-0.4
		C434.5,164.5,436.6,183.5,427.8,190z"/>
	<g id="elpphxxt3mr5l" class="st8">
		<path class="st16" d="M427.6,190.2c-1.2,0.8-2.5,1.4-3.8,1.7c-4,0.9-6.8,0.2-8.6-1.6c2.4,0.6,5,0.4,7.3-0.6
			C424.1,189.1,426,189.3,427.6,190.2z"/>
	</g>
	<path id="el51tgn3t9sq3" class="st32" d="M428.8,200.6c0.7,3.3-3.5,4.6-3.5,4.6c-6.9-3-8.2-6.6-8.2-6.6c5.8-3,4.1-11.5,4.1-11.5
		l1.2,0.6l8.2,1.6c0,0-2.3,4.4-2.6,5.4l0,0C426.4,199.8,428.8,200.6,428.8,200.6z"/>
	<path id="elff4zuts59hk" class="st7" d="M413.6,170.2c0,0-0.6,8,7,11.5c0,0,3.3,8.4,8.1,8.5c6.6,0.2,12.4-9.2,10.1-18.7
		C435.8,159.1,417.1,158.1,413.6,170.2z"/>
	<path id="elvuj5upyov5r" class="st32" d="M416.7,179.4c0-1.2,1-3.4,3-3.1s3.1,5.3-1.8,6.4C417.1,182.8,416.7,182,416.7,179.4z"/>
	<path id="elcassf74kt6u" class="st7" d="M427.6,161.6c0,0-7.7-1.9-11.9,1.1c-5,3.6-6.8,7.3-1,13.1c0,0,12.9-4.2,17.1-3.3
		c2.5,0.5,5,1.2,7.3,2.1C440.1,166.2,431.9,159.9,427.6,161.6z"/>
	<path id="el7oruo5bngkd" class="st7" d="M416.7,177.4c0,0,2,9.3-1.1,17.2c0,0,18.2,6.3,24.5,2.9s0.5-14.9,0.3-21.6
		s-3.1-16.4-12.8-14.2S416.7,177.4,416.7,177.4z"/>
	<line id="elzmp2h4ugrt" class="st33" x1="410.2" y1="176.9" x2="417.9" y2="176.9"/>
	<g id="eldo5eiu15zs5" class="st8">
		<path class="st16" d="M421.4,308.6l-0.7,0.1l-3.9-14.2c0,0,8.3-14.2,5.7-21.6C422.9,273.4,431.8,286.7,421.4,308.6z"/>
	</g>
	<path id="elokxd5u914k" class="st7" d="M405.8,199.8c0,0,9.1-3.3,22.9,0.7s14.3,9.9,14.3,9.9s-8.7,19.8-10.1,42.2l-35.9-1.3
		C397,251.3,392.7,219.6,405.8,199.8z"/>
	<g id="elgrc69e67ps7" class="st8">
		<path class="st9" d="M443.1,210.4c0,0-8.7,19.8-10.1,42.2l-35.9-1.3c-0.4-3.7-0.6-7.3-0.7-11c-0.1-5.4,0.3-10.8,1-16.1
			c1.2-8.3,3.7-17.2,8.5-24.4c0,0,9.1-3.3,22.9,0.7S443.1,210.4,443.1,210.4z"/>
	</g>
	<g id="elhspfgwhof3q" class="st8">
		<path class="st16" d="M405.3,225.6c0,0-1.5,9.1-9,14.7c-0.1-5.4,0.3-10.8,1-16.1L405.3,225.6z"/>
	</g>
	<path id="el0tqtadsw2w6" class="st32" d="M365.6,199.2l-4.5-6.7c0,0-0.7-2.9-1.6-3.6s-9.6-4.4-10.6-4.4s-1,6.8,0,7.9s6.5,3.6,8,3.9
		s0.7,0,0.7,0l4,8L365.6,199.2z"/>
	<path id="el2lqqpj9gill" class="st7" d="M405.8,199.8c-9.7,4.1-19.1,8.9-28,14.5l-14.6-20c0,0-3.9,1.2-5.4,8.1
		c0,0,7.5,28.6,17.3,31.4s30.3-8.3,30.3-8.3S411.3,210.7,405.8,199.8z"/>
	<g id="elg7lbj4wu4bp" class="st8">
		<path class="st9" d="M405.8,199.8c-9.7,4.1-19.1,8.9-28,14.5l-14.6-20c0,0-3.9,1.2-5.4,8.1c0,0,7.5,28.6,17.3,31.4
			s30.3-8.3,30.3-8.3S411.3,210.7,405.8,199.8z"/>
	</g>
	<path id="eli4zggni5qof" class="st7" d="M415.1,198.6c0,0,3.2,22.8,13.3,23.8s14.6-16,12.9-18S426.5,198.4,415.1,198.6z"/>
	<g id="el1euebd7atn9" class="st8">
		<path class="st34" d="M415.1,198.6c0,0,3.2,22.8,13.3,23.8s14.6-16,12.9-18S426.5,198.4,415.1,198.6z"/>
	</g>
</g>
<g id="freepik--character-1--inject-2">
	<g id="freepik--group--inject-2">
		<polygon id="el9wv8sxnf7xm" class="st35" points="55.4,408.7 62.8,408.7 63.4,391.5 56,391.5 		"/>
		<path id="elbj1j3ovez9c" class="st27" d="M63.8,407.8h-9c-0.3,0-0.6,0.2-0.6,0.5l-1.5,6.6c-0.1,0.6,0.2,1.2,0.8,1.3l0,0h0.2
			c2.9,0,5-0.2,8.7-0.2c2.3,0,9,0.2,12.2,0.2s3.5-3.1,2.2-3.4c-5.7-1.2-10-3-11.8-4.6C64.7,408,64.2,407.8,63.8,407.8z"/>
		<path id="elnr3r2v9nx6" class="st11" d="M64.3,408.8c-0.1,0-0.1-0.1-0.1-0.1c0-0.1,0-0.1,0.1-0.2c0.3-0.2,2.7-1.6,3.5-1.2
			c0.2,0.1,0.3,0.3,0.3,0.5c0.1,0.4-0.1,0.7-0.4,0.9c-0.4,0.3-0.9,0.4-1.4,0.4C65.6,409.1,64.9,409,64.3,408.8z M64.8,408.6
			c0.9,0.3,1.8,0.2,2.6-0.1c0.2-0.2,0.3-0.4,0.2-0.6c0-0.1-0.1-0.2-0.1-0.2c-0.1,0-0.2-0.1-0.2,0C66.4,407.7,65.6,408.1,64.8,408.6z
			"/>
		<path id="ellcnr9q6m5sm" class="st11" d="M64.2,408.9c-0.1,0-0.1-0.1-0.1-0.2s0.2-2.2,1-2.9c0.2-0.2,0.5-0.3,0.7-0.2
			c0.3,0,0.5,0.2,0.6,0.5C66.6,406.9,65.1,408.5,64.2,408.9L64.2,408.9L64.2,408.9z M65.4,406c-0.5,0.7-0.8,1.5-0.9,2.3
			c0.8-0.6,1.7-1.8,1.6-2.3c0,0,0-0.2-0.3-0.2h-0.1C65.7,405.8,65.5,405.9,65.4,406z"/>
		<g id="elmtok5aczqvn">
			<polygon class="st16" points="56,391.5 63.4,391.5 63.1,400.4 55.7,400.4 			"/>
		</g>
		<polygon id="el2w0aggrgun3" class="st35" points="93.5,409.2 101.1,410 102.6,393.5 94.9,392.7 		"/>
		<path id="el4eve5rqzofh" class="st27" d="M101.9,407.6H93c-0.3,0-0.6,0.2-0.6,0.5l-1.5,6.6c-0.1,0.6,0.2,1.2,0.8,1.3l0,0h0.2
			c2.9,0,5-0.2,8.7-0.2c2.2,0,9,0.2,12.2,0.2s3.5-3.1,2.2-3.4c-5.7-1.2-10-3-11.8-4.6C102.8,407.7,102.4,407.6,101.9,407.6z"/>
		<path id="el5g16s60vmzo" class="st11" d="M102.4,408.6c-0.1,0-0.1-0.1-0.1-0.1c0-0.1,0-0.1,0.1-0.2c0.3-0.2,2.7-1.6,3.5-1.2
			c0.2,0.1,0.3,0.3,0.3,0.5c0,0.4-0.1,0.7-0.4,1c-0.4,0.3-0.9,0.4-1.4,0.4C103.7,408.8,103.1,408.8,102.4,408.6z M103,408.4
			c0.9,0.3,1.8,0.2,2.6-0.1c0.2-0.2,0.3-0.4,0.2-0.6c0-0.1-0.1-0.2-0.1-0.2c-0.1,0-0.1-0.1-0.2,0C104.6,407.5,103.8,407.9,103,408.4
			L103,408.4z"/>
		<path id="elsrmsltgcv2d" class="st11" d="M102.4,408.6c-0.1,0-0.1-0.1-0.1-0.2s0.2-2.2,1.1-2.9c0.2-0.2,0.5-0.3,0.7-0.2
			c0.3,0,0.5,0.2,0.6,0.5c0.2,0.8-1.3,2.4-2.1,2.8L102.4,408.6L102.4,408.6z M103.6,405.8c-0.5,0.7-0.8,1.5-0.9,2.3
			c0.8-0.6,1.7-1.8,1.6-2.3c0,0,0-0.2-0.3-0.2h0C103.8,405.6,103.7,405.7,103.6,405.8z"/>
		<g id="elpovne78krxm">
			<polygon class="st16" points="94.9,392.7 102.6,393.5 101.8,402 94.2,401.2 			"/>
		</g>
		<path id="elqv6lww7d5ta" class="st27" d="M59,241.1h39.3c3.7,20.4,15.4,92.6,7,157L92,396.4c0,0,1.2-85.4-10.5-117
			c-1.3,16.9-3,34.9-4.3,44.5c-3.4,23.5-10.7,75-10.7,75H52.9c0,0,2.8-49.3,4-72.4C58.4,301.3,59,246.2,59,241.1z"/>
		<polygon id="elbvcg4x9ak96" class="st11" points="106.9,401.1 90.4,398.7 90.9,394.1 108.1,396.4 		"/>
		<polygon id="elj34gvgl6bbh" class="st11" points="68.1,398.9 52.1,398.9 52.1,394.2 68.7,393.9 		"/>
		<g id="el2ceyjmqxaj1">
			<path class="st16" d="M81.6,279.4c1.9,5.5,3.4,11.2,4.4,17c1.1-15-3.3-31-3.3-31L81.6,279.4z"/>
		</g>
		<path id="elp4ac924xkja" class="st11" d="M57.9,247.9l-0.9,4.8c0,0,27.5,3.6,44.6,3.5l-0.6-3.3L57.9,247.9z"/>
		<path id="el3gleo3j0m5v" class="st35" d="M113.7,206.8c0,0,9.5,30,16,32s23-22.8,23-22.8s14.8-0.1,15.5-1.1s-3.9-11.5-4.9-11.5
			s-14,4.9-14.5,5.7s-15.3,15-16,14.6s-6.3-18.2-6.3-18.2L113.7,206.8z"/>
		<path id="eluvuopqnj2vd" class="st35" d="M154.7,214.4c0.1,0,0.2-0.1,0.4-0.1l-0.2-0.1C154.8,214.2,154.8,214.3,154.7,214.4z"/>
		<path id="el0xdmjlzhml7" class="st11" d="M108.3,203.3l1.2,2.1l5.4,10l1.1,2.1l15.2-5.3c0,0-6.3-23.6-8.5-26L108.3,203.3z"/>
		<g id="elrtvi36uutbp">
			<path class="st10" d="M108.3,203.3l1.2,2.1l5.4,10l1.1,2.1l15.2-5.3c0,0-6.3-23.6-8.5-26L108.3,203.3z"/>
		</g>
		<g id="el04c0vyvhsx7r">
			<path class="st16" d="M109.5,205.4l5.4,10c3.3-6.6,2.4-15.6,2.4-15.6L109.5,205.4z"/>
		</g>
		<path id="elyk1ehgi9rf" class="st11" d="M122.7,186.2c-5.8-6.7-14.1-10.7-22.9-11.1c-14.9-0.7-19.6,0.8-25,5.6
			C66.9,187.9,57,249,57,249c14.5,4,29.6,5.7,44.6,4.9c0,0,0.2-17,5.6-28.4C113.2,212.7,118.4,199.6,122.7,186.2z"/>
		<g id="el6a6fzd7hb65">
			<path class="st10" d="M57,249c14.5,4,29.6,5.7,44.6,4.9c0,0,0-2.1,0.3-5.3c0.1-1.5,0.3-3.3,0.6-5.2s0.6-4.1,1-6.3
				c0.2-1.2,0.5-2.4,0.8-3.5c0.7-2.8,1.6-5.5,2.8-8.1c0.7-1.4,1.3-2.8,1.9-4.1c1.1-2.4,2.1-4.7,3-6.9c2-4.6,3.7-8.9,5.1-12.6
				c1-2.7,1.9-5.1,2.6-7.1c0.8-2.3,1.4-4.2,1.9-5.6c0.6-1.9,0.9-2.9,0.9-2.9c-0.5-0.6-1-1.2-1.6-1.8c-5.6-5.5-13-8.8-20.8-9.3h-0.5
				c-11.3-0.5-16.8,0.2-21.1,2.7c-1.4,0.8-2.7,1.8-3.9,2.9c-1.1,1.2-2,2.6-2.6,4.2c-1.8,4.3-3.4,8.7-4.5,13.3l-0.7,2.4
				c-1,3.7-1.9,7.7-2.8,11.7c-0.3,1.1-0.5,2.3-0.8,3.4c-0.4,1.7-0.7,3.5-1.1,5.2c-0.9,4.3-1.7,8.5-2.4,12.2c-1,5.4-1.8,9.9-2.3,12.7
				C57.2,247.9,57,249,57,249z M100.7,175.7c1,0,2,0.1,3,0.2c4,0.5,10.2,3.8,10,5.3s-2.5,5.4-8.5,4.5c-2.1-0.4-4.1-1.2-5.8-2.4
				c-3.3-2.2-5.7-5.1-5.9-6.1C93.2,176,97.1,175.6,100.7,175.7L100.7,175.7z"/>
		</g>
		<path id="elrig1s7lu3kh" class="st11" d="M87.9,196.1c0,0-7.9,19.1-9.5,34.9l21.3,2.7c0,0,9.6-25.8,11.5-33.8
			C111.2,199.9,94.2,198.2,87.9,196.1z"/>
		<g id="el7hah00tkyio">
			<polygon class="st10" points="107.1,200.6 110,200.9 107.9,202.6 			"/>
		</g>
		<path id="elntba8flqaw" class="st35" d="M95.5,177.2c1.6,4.6,7.6,6.7,10.7,7c2.4,0.4,4.7-0.9,5.7-3.1c0,0-3.6-1.8-3.2-3.8
			c0.3-1.2,0.8-2.4,1.5-3.4c0.4-0.6,0.8-1.2,1.2-1.7l-5.8-12.3C104.3,165.2,100.4,175.5,95.5,177.2z"/>
		<g id="elxjzu1u3gi8q">
			<path class="st16" d="M105.4,165.6c-2.7,6,1.1,10.1,3.3,11.7c0.3-1.2,0.8-2.4,1.5-3.4L105.4,165.6z"/>
		</g>
		<path id="eli1yhf1k7ghl" class="st35" d="M124.7,149.6c0,0,1.8,10.2-3.5,14.2s-5.8-14.9-5.8-14.9L124.7,149.6z"/>
		<g id="el6156npsrpk">
			<path class="st25" d="M124.7,149.6c0,0,1.8,10.2-3.5,14.2s-5.8-14.9-5.8-14.9L124.7,149.6z"/>
		</g>
		<path id="elchsovbz3oyc" class="st35" d="M105.7,172.3c2.4,3.4,6.8,4.7,10.7,3.3c2.5-0.9,4.5-2.7,5.8-5c0.2-0.3,0.3-0.6,0.5-1
			c2.5-6.3,3-21.7-3.7-21.1c-5.5,0.5-10.9-1.2-13.7,3.5c-0.8,1.4-1.3,2.9-1.4,4.5C103.3,163.9,102.6,168.1,105.7,172.3z"/>
		<path id="elv4fdhwa0rqr" class="st27" d="M114.6,160.1c-0.1,0.6,0.2,1.1,0.6,1.2s0.8-0.4,0.9-1s-0.2-1.1-0.6-1.2
			S114.7,159.5,114.6,160.1z"/>
		<path id="elk96l314nbd9" class="st27" d="M121.3,161.1c-0.1,0.6,0.2,1.1,0.6,1.2s0.8-0.4,0.8-1s-0.2-1.1-0.6-1.2
			S121.4,160.5,121.3,161.1z"/>
		<path id="elny9crq7118k" class="st36" d="M119.1,161.1c0.5,1.9,1.2,3.7,2.1,5.5c-0.9,0.5-2,0.5-2.9,0.1L119.1,161.1z"/>
		<path id="elkbdv7wdz999" class="st27" d="M112.8,157.7c0.1,0,0.3,0,0.3-0.1c0.6-0.6,1.5-1,2.4-0.8c0.2,0,0.4-0.1,0.4-0.3
			s-0.1-0.4-0.3-0.4l0,0l0,0c-1.1-0.2-2.2,0.2-3,1c-0.1,0.1-0.1,0.4,0,0.5l0,0C112.8,157.6,112.8,157.6,112.8,157.7z"/>
		<path id="elkp8j2dolixa" class="st27" d="M124.5,159.2c0.1,0,0.1,0,0.2,0c0.2,0,0.3-0.2,0.2-0.4l0,0l0,0c-0.3-1.1-1.1-1.9-2.2-2.3
			c-0.2-0.1-0.4,0-0.4,0.2l0,0l0,0c-0.1,0.2,0.1,0.4,0.2,0.4l0,0c0.8,0.3,1.5,1,1.7,1.9C124.3,159.1,124.4,159.2,124.5,159.2z"/>
		<path id="elznyw0h5m9f" class="st37" d="M113.7,166.9c0,0,1.2,2.6,3.7,2.5"/>
		<path id="elj3lnvaqtj4" class="st35" d="M110.5,148.2l0.1,3.3c-1.2,0.4-1.8,1.7-1.5,2.9c0.8,2.8-1.2,6.9-3.4,8.3c0,0,0-1.2-1-1
			s-1.3,6.3,0.3,9.4c0,0-3.5-3.2-4.6-9.8c-1-6.1-0.8-9.9,0-12.8L110.5,148.2z"/>
		<g id="elvy8j1xtesfo">
			<path class="st25" d="M110.5,148.2l0.1,3.3c-1.2,0.4-1.8,1.7-1.5,2.9c0.8,2.8-1.2,6.9-3.4,8.3c0,0,0-1.2-1-1s-1.3,6.3,0.3,9.4
				c0,0-3.5-3.2-4.6-9.8c-1-6.1-0.8-9.9,0-12.8L110.5,148.2z"/>
		</g>
		<path id="el9vadyngbxw6" class="st27" d="M99.9,152.1c3.6,0.3,7.2,0.1,10.7-0.6c10.1-2,14.4,1.7,14.4,1.7c1.4-1.3,2.2-3.1,2.1-5
			c-0.3-2.9-4.3-3.4-4.3-3.4s-1.2-3.3-3.9-4.3s-5.3,1.5-5.3,1.5s-3.3-3.2-7.2-2.3c-2.7,0.6-4.6,2.9-4.7,5.7c0,0-4.6,0.5-4.4,2.8
			S99.9,152.1,99.9,152.1z"/>
		<ellipse id="ele69h0mpsnyb" class="st37" cx="115.4" cy="160.6" rx="3.3" ry="3.8"/>
		<path id="ele18fysosuil" class="st37" d="M126.9,161.2c-0.3,1.8-1.9,3.1-3.7,2.8c-1.8-0.3-3.1-1.9-2.8-3.7
			c0.2-1.6,1.6-2.8,3.3-2.8C125.5,157.6,127,159.2,126.9,161.2z"/>
		<path id="el9ra4buz7sob" class="st37" d="M118.7,161.1c0,0,1.1-0.7,1.7,0.1"/>
		<path id="eld6noptt7739" class="st37" d="M112.1,160.6l-5.7-0.8c-0.8-0.1-1.5,0.1-2.1,0.6l-0.2,0.2"/>
		<path id="el5y0oh6ipoxv" class="st35" d="M99.9,162c0.6,1.8,1.8,3.2,3.5,4.1c2.2,1.1,3.8-0.8,3.5-3.1c-0.2-2.1-1.6-5.2-4-5.3
			c-1.7-0.1-3.2,1.3-3.2,3C99.6,161.2,99.7,161.6,99.9,162z"/>
		<g id="elm1ql0hxsn2k">
			<path class="st16" d="M63.3,215.8c9.4-3.9,16.9-20.1,16.9-20.1l-5.4-3.2l-7.3,5.9l-0.7,2.4c-1,3.7-1.9,7.7-2.8,11.7
				C63.8,213.5,63.6,214.7,63.3,215.8z"/>
		</g>
		<polygon id="el7zu61vmghrx" class="st11" points="115.3,217.5 131.6,211.5 132.1,212.9 115.8,218.7 		"/>
		<g id="el3i9j41kygp">
			<rect x="23.3" y="254.7" class="st11" width="47.8" height="29.5"/>
		</g>
		<polyline id="elvmcsbemxtvp" class="st38" points="42.6,262.3 33,267.2 40.6,274.9 		"/>
		<polyline id="elragh4qrero" class="st38" points="51.8,276.7 61.4,271.7 53.8,264 		"/>
		<line id="elkq8dbt5fhcl" class="st38" x1="44" y1="275.5" x2="50.5" y2="263.5"/>
		<path id="elpjhg7rl24po" class="st35" d="M69.2,183.4c0,0-17.8,17.8-20.2,21.3s-7.1,41.9-7.1,41.9s-1,0.3-1.1,1.2
			s-0.2,11.6,0,12.1s8.3,5.5,9.5,4.4s2.9-13.4,2.9-13.4l-4.3-4.2c0,0,5-28.3,8.2-32.9s16.1-14.4,16.1-14.4L69.2,183.4z"/>
		<path id="el1mwncae88tk" class="st11" d="M82.9,176.2c2.6,5.5,0.6,17.1-4.2,21.1c-5.1,4.2-10.4,8-16,11.5L54,197.4
			c0,0,9.3-9.1,14.9-14.3C72.7,179.4,77.6,177,82.9,176.2z"/>
		<g id="eltkfel7h2aze">
			<path class="st10" d="M82.9,176.2c2.6,5.5,0.6,17.1-4.2,21.1c-5.1,4.2-10.4,8-16,11.5L54,197.4c0,0,9.3-9.1,14.9-14.3
				C72.7,179.4,77.6,177,82.9,176.2z"/>
		</g>
		<polygon id="elrfroo5sjed" class="st11" points="54,196.6 52.9,198.1 62,210 63.3,209.1 		"/>
	</g>
</g>
</svg>
